# xmcd
#
# Track frame offsets: 
#        150
#        14471
#        26628
#        37950
#        49777
#        60633
#        73595
#        87709
#        99624
#        108599
#        115237
#        132318
#        146684
#        158637
#        176936
#        186650
#        201077
#        211938
#
# Disc length: 3077 seconds
#
# Revision: 0
# Processed by: cddbd v1.5.2PL0 Copyright (c) Steve Scherf et al.
# Submitted via: ExactAudioCopy v1.0b3
#
DISCID=100c0312
DTITLE=Radio Sweethearts - New Memories...Revisited
DYEAR=1998
DGENRE=Country
TTITLE0=Lonely Footsteps
TTITLE1=Every Other Song
TTITLE2=Beer And Whisky
TTITLE3=Is Anybody Going To San Antone
TTITLE4=A House Of Light
TTITLE5=I Saw The Light
TTITLE6=New Memories
TTITLE7=Headin' On Down The Highways
TTITLE8=Red Cadillac And A Black Moustache
TTITLE9=Don't Make Me Wait
TTITLE10=We've Fallen Out Of Love Again
TTITLE11=Out In The Darkness
TTITLE12=Lone Star
TTITLE13=Ramblin' Man
TTITLE14=Found A New Love
TTITLE15=Tossin' And Turnin'
TTITLE16=I Been To Georgia On A Fast Train
TTITLE17=A Deeper Hurt
EXTD=
EXTT0=
EXTT1=
EXTT2=
EXTT3=
EXTT4=
EXTT5=
EXTT6=
EXTT7=
EXTT8=
EXTT9=
EXTT10=
EXTT11=
EXTT12=
EXTT13=
EXTT14=
EXTT15=
EXTT16=
EXTT17=
PLAYORDER=
